<?xml version="1.0" encoding="utf-8"?>
<svg version="1.1" xmlns:xlink="http://www.w3.org/1999/xlink" width="9px" height="6px" xmlns="http://www.w3.org/2000/svg">
  <g transform="matrix(1 0 0 1 -4 -5 )">
    <path d="M 8.83741935483871 0.828282828282829  C 8.9458064516129 0.922558922558922  9 1.03703703703704  9 1.17171717171717  C 9 1.30639730639731  8.9458064516129 1.42087542087542  8.83741935483871 1.51515151515151  L 4.63354838709677 5.17171717171717  L 3.84387096774194 5.85858585858586  C 3.73548387096774 5.95286195286195  3.60387096774194 6  3.44903225806452 6  C 3.2941935483871 6  3.16258064516129 5.95286195286195  3.0541935483871 5.85858585858586  L 2.26451612903226 5.17171717171717  L 0.16258064516129 3.34343434343434  C 0.0541935483870968 3.24915824915825  0 3.13468013468013  0 3  C 0 2.86531986531987  0.0541935483870968 2.75084175084175  0.16258064516129 2.65656565656566  L 0.952258064516129 1.96969696969697  C 1.06064516129032 1.87542087542088  1.19225806451613 1.82828282828283  1.34709677419355 1.82828282828283  C 1.50193548387097 1.82828282828283  1.63354838709677 1.87542087542088  1.74193548387097 1.96969696969697  L 3.44903225806452 3.45959595959596  L 7.25806451612903 0.141414141414141  C 7.36645161290323 0.0471380471380469  7.49806451612903 0  7.65290322580645 0  C 7.80774193548387 0  7.93935483870968 0.0471380471380469  8.04774193548387 0.141414141414141  L 8.83741935483871 0.828282828282829  Z " fill-rule="nonzero" fill="#000000" stroke="none" transform="matrix(1 0 0 1 4 5 )" />
  </g>
</svg>